<svg xmlns="http://www.w3.org/2000/svg" xmlns:xlink="http://www.w3.org/1999/xlink" version="1.1" width="1080" height="445.71432892156804" xml:space="preserve"><rect id="backgroundrect" width="100%" height="100%" x="0" y="0" fill="none" stroke="none" style="" class="selected"/>
<desc>Created with Fabric.js 5.2.4</desc>
<defs>
</defs>



<g class="currentLayer" style=""><title>Layer 1</title><g id="439d9f12-04a0-47a0-bfd3-5418a7d3a0e8" class="">
</g><g id="ad650e16-bb46-4b09-819c-f0c5b108abda" class="">
<rect style="stroke: none; stroke-width: 1; stroke-dasharray: none; stroke-linecap: butt; stroke-dashoffset: 0; stroke-linejoin: miter; stroke-miterlimit: 4; fill: rgb(255,255,255); fill-rule: nonzero; opacity: 1; visibility: hidden;" vector-effect="non-scaling-stroke" x="-540" y="-540" rx="0" ry="0" width="1080" height="1080" transform="matrix(1,0,0,1,540,540) " stroke-width="0" id="svg_1"/>
</g><g id="svg_2" class="">
<g style="" vector-effect="non-scaling-stroke" stroke-width="0" id="svg_3">
		<g stroke-width="0" id="svg_4">
<path style="stroke: none; stroke-width: 1; stroke-dasharray: none; stroke-linecap: butt; stroke-dashoffset: 0; stroke-linejoin: miter; stroke-miterlimit: 4; fill: rgb(255,255,255); fill-rule: nonzero; opacity: 1;" vector-effect="non-scaling-stroke" d="M409.4500030517578,203.90997558593756 C409.2500030517578,203.90997558593756 408.9500030517578,203.90997558593756 408.7500030517578,203.90997558593756 L366.2500030517578,93.30997558593754 C367.9500030517578,92.20997558593751 369.0500030517578,90.30997558593754 369.0500030517578,88.20997558593751 C369.0500030517578,84.9099755859375 366.3500030517578,82.20997558593751 363.0500030517578,82.20997558593751 C361.2500030517578,82.20997558593751 359.65000305175784,83.00997558593753 358.5500030517578,84.30997558593754 L276.4500030517578,33.509975585937525 C276.6500030517578,32.9099755859375 276.7500030517578,32.309975585937536 276.7500030517578,31.709975585937514 C276.7500030517578,28.409975585937502 274.0500030517578,25.709975585937514 270.7500030517578,25.709975585937514 C268.0500030517578,25.709975585937514 265.8500030517578,27.409975585937502 265.0500030517578,29.809975585937536 L198.35000305175782,25.309975585937536 C198.15000305175784,20.90997558593756 194.45000305175782,17.309975585937536 189.95000305175782,17.309975585937536 C185.35000305175782,17.309975585937536 181.5500030517578,21.009975585937525 181.5500030517578,25.709975585937514 C181.5500030517578,26.409975585937502 181.6500030517578,27.10997558593749 181.7500030517578,27.709975585937514 L181.7500030517578,27.709975585937514 L92.6500030517578,70.60997558593749 C91.6500030517578,69.50997558593747 90.1500030517578,68.80997558593748 88.55000305175781,68.80997558593748 C85.45000305175782,68.80997558593748 82.95000305175782,71.30997558593748 82.95000305175782,74.4099755859375 C82.95000305175782,76.00997558593753 83.65000305175782,77.50997558593753 84.75000305175782,78.50997558593753 L39.250003051757815,137.4099755859375 C38.650003051757814,137.2099755859375 38.05000305175781,137.1099755859375 37.45000305175782,137.1099755859375 C34.15000305175782,137.1099755859375 31.450003051757818,139.80997558593748 31.450003051757818,143.1099755859375 C31.450003051757818,145.6099755859375 32.95000305175782,147.80997558593748 35.15000305175782,148.7099755859375 L35.55000305175782,257.30997558593754 C32.35000305175782,258.30997558593754 29.950003051757818,261.30997558593754 29.950003051757818,264.80997558593754 C29.950003051757818,269.2099755859375 33.45000305175782,272.7099755859375 37.85000305175782,272.7099755859375 C39.35000305175782,272.7099755859375 40.750003051757815,272.30997558593754 41.95000305175782,271.6099755859375 L102.35000305175782,343.30997558593754 C101.55000305175783,344.30997558593754 101.05000305175783,345.6099755859375 101.05000305175783,347.0099755859376 C101.05000305175783,350.30997558593754 103.75000305175783,353.0099755859376 107.05000305175783,353.0099755859376 C108.95000305175783,353.0099755859376 110.55000305175783,352.2099755859376 111.65000305175782,350.80997558593754 L180.15000305175784,387.90997558593756 C180.05000305175784,388.5099755859376 179.95000305175785,389.1099755859376 179.95000305175785,389.7099755859375 C179.95000305175785,394.1099755859375 183.45000305175785,397.6099755859375 187.85000305175785,397.6099755859375 C192.25000305175786,397.6099755859375 195.75000305175786,394.1099755859375 195.75000305175786,389.7099755859375 C195.75000305175786,389.40997558593756 195.75000305175786,389.2099755859375 195.75000305175786,388.90997558593756 L292.25000305175786,369.6099755859376 C293.55000305175787,372.40997558593756 296.45000305175785,374.40997558593756 299.8500030517579,374.40997558593756 C304.4500030517579,374.40997558593756 308.25000305175786,370.7099755859375 308.25000305175786,366.0099755859376 C308.25000305175786,364.7099755859376 307.95000305175785,363.40997558593756 307.3500030517579,362.30997558593754 L369.55000305175787,322.0099755859376 C370.95000305175785,323.1099755859376 372.75000305175786,323.80997558593754 374.6500030517579,323.80997558593754 C379.2500030517579,323.80997558593754 383.05000305175787,320.1099755859375 383.05000305175787,315.40997558593756 C383.05000305175787,312.40997558593756 381.45000305175785,309.7099755859375 379.05000305175787,308.2099755859375 L409.3500030517579,217.80997558593754 C409.4500030517579,217.80997558593754 409.4500030517579,217.80997558593754 409.55000305175787,217.80997558593754 C413.3500030517579,217.80997558593754 416.55000305175787,214.7099755859375 416.55000305175787,210.80997558593754 C416.4500030517578,207.00997558593758 413.3500030517578,203.90997558593756 409.4500030517578,203.90997558593756 zM404.3500030517578,215.6099755859375 L366.0500030517578,260.90997558593756 C364.9500030517578,260.2099755859375 363.65000305175784,259.6099755859376 362.2500030517578,259.40997558593756 L372.0500030517578,155.60997558593755 C372.8500030517578,155.50997558593753 373.5500030517578,155.40997558593756 374.3500030517578,155.10997558593755 L405.65000305175784,205.1099755859375 C403.75000305175786,206.30997558593754 402.45000305175785,208.50997558593747 402.45000305175785,210.90997558593745 C402.5500030517578,212.7099755859375 403.2500030517578,214.30997558593754 404.3500030517578,215.6099755859375 zM349.8500030517578,272.1099755859375 L239.15000305175784,307.1099755859375 C238.05000305175784,305.2099755859375 236.35000305175782,303.7099755859375 234.35000305175782,302.80997558593754 L272.3500030517578,181.7099755859375 C273.45000305175785,182.00997558593753 274.65000305175784,182.2099755859375 275.7500030517578,182.2099755859375 C278.5500030517578,182.2099755859375 281.0500030517578,181.30997558593754 283.1500030517578,179.9099755859375 L352.35000305175777,262.80997558593754 C350.6500030517578,264.7099755859375 349.55000305175776,267.2099755859375 349.55000305175776,270.0099755859376 C349.5500030517578,270.6099755859375 349.65000305175784,271.40997558593756 349.8500030517578,272.1099755859375 zM139.85000305175782,222.40997558593756 L99.55000305175783,298.30997558593754 C98.55000305175783,297.90997558593756 97.55000305175783,297.7099755859375 96.45000305175783,297.7099755859375 C96.15000305175784,297.7099755859375 95.85000305175784,297.7099755859375 95.55000305175783,297.80997558593754 L62.250003051757815,183.30997558593754 C63.85000305175782,182.50997558593753 65.15000305175782,181.2099755859375 66.05000305175781,179.60997558593755 L135.5500030517578,209.40997558593756 L135.5500030517578,209.40997558593756 C135.2500030517578,210.50997558593758 135.0500030517578,211.6099755859376 135.0500030517578,212.7099755859375 C135.0500030517578,216.7099755859375 136.95000305175782,220.2099755859375 139.85000305175782,222.40997558593756 zM136.5500030517578,206.80997558593754 L67.05000305175781,177.00997558593753 C67.1500030517578,176.4099755859375 67.25000305175782,175.7099755859375 67.25000305175782,175.10997558593755 C67.25000305175782,173.40997558593756 66.85000305175781,171.80997558593754 66.05000305175781,170.50997558593753 L152.35000305175782,96.60997558593749 C153.5500030517578,97.80997558593748 155.15000305175784,98.80997558593748 156.85000305175782,99.30997558593748 L146.45000305175782,200.6099755859375 C142.1500030517578,201.00997558593758 138.45000305175782,203.40997558593756 136.5500030517578,206.80997558593754 zM159.45000305175782,99.90997558593756 C159.6500030517578,99.90997558593756 159.85000305175782,99.90997558593756 160.0500030517578,99.90997558593756 C163.45000305175782,99.90997558593756 166.45000305175782,98.40997558593756 168.45000305175782,96.10997558593755 L264.15000305175784,163.10997558593755 C263.25000305175786,164.90997558593756 262.65000305175784,167.00997558593753 262.65000305175784,169.10997558593755 C262.65000305175784,169.70997558593757 262.65000305175784,170.30997558593754 262.75000305175786,170.90997558593756 L157.55000305175787,207.00997558593758 L157.55000305175787,207.00997558593758 C155.85000305175788,203.80997558593754 152.65000305175786,201.50997558593758 148.95000305175788,200.90997558593756 L159.45000305175782,99.90997558593756 zM171.1500030517578,87.10997558593755 L282.4500030517578,61.10997558593755 C283.4500030517578,63.60997558593755 285.5500030517578,65.60997558593755 288.0500030517578,66.40997558593756 L275.3500030517578,156.10997558593755 C271.5500030517578,156.20997558593757 268.15000305175784,158.00997558593753 265.8500030517578,160.70997558593757 L170.15000305175784,93.70997558593757 C170.95000305175785,92.20997558593757 171.35000305175782,90.50997558593758 171.35000305175782,88.70997558593757 C171.2500030517578,88.20997558593751 171.1500030517578,87.60997558593755 171.1500030517578,87.10997558593755 zM362.65000305175784,147.40997558593756 L287.8500030517578,164.40997558593756 C286.2500030517578,160.30997558593754 282.5500030517578,157.20997558593757 278.15000305175784,156.40997558593756 L290.8500030517578,67.00997558593758 C290.95000305175785,67.00997558593758 291.0500030517578,67.00997558593758 291.15000305175784,67.00997558593758 C292.8500030517578,67.00997558593758 294.45000305175785,66.50997558593758 295.75000305175786,65.8099755859376 L364.3500030517579,141.70997558593763 C363.25000305175786,143.20997558593763 362.6500030517579,145.00997558593764 362.6500030517579,146.90997558593762 C362.5500030517578,147.00997558593753 362.5500030517578,147.2099755859375 362.65000305175784,147.40997558593756 zM159.1500030517578,212.7099755859375 C159.1500030517578,211.6099755859375 158.95000305175782,210.50997558593747 158.7500030517578,209.50997558593747 L263.5500030517578,173.6099755859375 C264.65000305175784,176.6099755859375 266.8500030517578,179.1099755859375 269.7500030517578,180.6099755859375 L231.6500030517578,302.00997558593747 C231.1500030517578,301.90997558593745 230.7500030517578,301.90997558593745 230.2500030517578,301.90997558593745 C228.1500030517578,301.90997558593745 226.1500030517578,302.50997558593747 224.5500030517578,303.6099755859375 L155.85000305175782,221.00997558593747 C157.85000305175782,218.90997558593756 159.1500030517578,216.00997558593758 159.1500030517578,212.7099755859375 zM285.2500030517578,177.90997558593756 C287.4500030517578,175.60997558593755 288.7500030517578,172.50997558593758 288.7500030517578,169.00997558593758 C288.7500030517578,168.3099755859376 288.6500030517578,167.6099755859376 288.5500030517578,166.90997558593756 L363.2500030517578,150.00997558593758 C364.3500030517578,152.6099755859376 366.6500030517578,154.6099755859376 369.4500030517578,155.3099755859376 L359.6500030517578,259.1099755859376 C357.7500030517578,259.2099755859376 356.05000305175776,259.80997558593765 354.55000305175776,260.80997558593765 L285.2500030517578,177.90997558593756 zM401.8500030517578,193.7099755859375 L376.8500030517578,153.7099755859375 C378.95000305175785,152.1099755859375 380.2500030517578,149.6099755859375 380.2500030517578,146.80997558593754 C380.2500030517578,142.00997558593753 376.4500030517578,138.10997558593755 371.7500030517578,138.00997558593753 L366.7500030517578,102.20997558593751 L401.8500030517578,193.7099755859375 zM362.7500030517578,94.30997558593754 L368.9500030517578,138.30997558593754 C367.9500030517578,138.60997558593755 367.0500030517578,139.00997558593753 366.2500030517578,139.60997558593755 L297.85000305175777,63.90997558593756 C298.25000305175774,63.50997558593758 298.55000305175776,63.00997558593758 298.85000305175777,62.50997558593758 L357.0500030517578,87.80997558593754 C357.0500030517578,88.00997558593753 357.0500030517578,88.10997558593755 357.0500030517578,88.30997558593754 C357.0500030517578,91.50997558593753 359.5500030517578,94.10997558593755 362.7500030517578,94.30997558593754 zM346.7500030517578,80.30997558593754 L300.0500030517578,60.009975585937525 C300.2500030517578,59.209975585937514 300.3500030517578,58.4099755859375 300.3500030517578,57.60997558593755 C300.3500030517578,52.509975585937525 296.15000305175784,48.309975585937536 291.0500030517578,48.309975585937536 C289.15000305175784,48.309975585937536 287.4500030517578,48.90997558593756 285.9500030517578,49.809975585937536 L276.2500030517578,36.60997558593755 L346.7500030517578,80.30997558593754 zM189.85000305175782,33.90997558593756 C193.65000305175784,33.90997558593756 196.85000305175782,31.40997558593756 197.85000305175782,27.90997558593756 L264.65000305175784,32.40997558593756 C265.0500030517578,35.309975585937536 267.5500030517578,37.60997558593755 270.65000305175784,37.60997558593755 C271.5500030517578,37.60997558593755 272.3500030517578,37.40997558593756 273.15000305175784,37.10997558593755 L283.95000305175785,51.70997558593757 C282.65000305175784,53.30997558593759 281.8500030517578,55.40997558593756 281.8500030517578,57.60997558593755 C281.8500030517578,57.90997558593756 281.8500030517578,58.10997558593755 281.8500030517578,58.309975585937536 L170.45000305175782,84.30997558593754 C169.5500030517578,82.10997558593755 167.95000305175782,80.30997558593754 165.95000305175782,79.10997558593755 L187.95000305175782,33.60997558593755 C188.45000305175782,33.809975585937536 189.1500030517578,33.90997558593756 189.85000305175782,33.90997558593756 zM182.85000305175782,30.109975585937548 C183.45000305175782,31.109975585937548 184.35000305175782,31.90997558593756 185.25000305175783,32.509975585937525 L163.25000305175783,78.00997558593753 C162.25000305175783,77.70997558593751 161.15000305175784,77.50997558593753 160.05000305175784,77.50997558593753 C155.15000305175784,77.50997558593753 151.05000305175784,80.60997558593755 149.55000305175784,85.00997558593753 L93.95000305175785,73.00997558593753 L93.95000305175785,73.00997558593753 C93.95000305175785,73.00997558593753 93.95000305175785,72.9099755859375 93.95000305175785,72.9099755859375 L182.85000305175782,30.109975585937548 zM88.35000305175781,79.90997558593756 C88.4500030517578,79.90997558593756 88.55000305175781,79.90997558593756 88.6500030517578,79.90997558593756 C91.1500030517578,79.90997558593756 93.35000305175781,78.20997558593757 93.9500030517578,75.90997558593756 L149.0500030517578,87.80997558593754 C149.0500030517578,88.10997558593755 149.0500030517578,88.40997558593756 149.0500030517578,88.70997558593751 C149.0500030517578,90.80997558593754 149.6500030517578,92.70997558593751 150.6500030517578,94.4099755859375 L64.35000305175781,168.30997558593754 C63.75000305175781,167.80997558593754 63.15000305175781,167.30997558593754 62.45000305175781,166.90997558593756 L88.35000305175781,79.90997558593756 zM41.650003051757814,138.7099755859375 L84.25000305175782,83.50997558593753 L59.650003051757814,165.90997558593756 C59.05000305175781,165.80997558593754 58.45000305175781,165.70997558593757 57.85000305175782,165.70997558593757 C56.650003051757814,165.70997558593757 55.55000305175782,165.90997558593756 54.55000305175782,166.3099755859376 L41.55000305175782,147.40997558593762 C42.75000305175782,146.3099755859376 43.55000305175782,144.70997558593763 43.55000305175782,142.90997558593762 C43.55000305175781,141.40997558593756 42.85000305175781,139.80997558593754 41.650003051757814,138.7099755859375 zM37.95000305175781,149.10997558593755 C38.35000305175781,149.10997558593755 38.75000305175781,149.00997558593753 39.05000305175781,148.90997558593756 L39.05000305175781,148.90997558593756 L52.150003051757814,167.90997558593756 C49.95000305175781,169.60997558593755 48.650003051757814,172.20997558593757 48.650003051757814,175.20997558593757 C48.650003051757814,179.20997558593757 51.150003051757814,182.50997558593758 54.650003051757814,183.90997558593756 L38.45000305175782,255.1099755859376 L37.95000305175781,149.10997558593755 zM40.750003051757815,257.40997558593756 L57.35000305175782,184.40997558593756 C57.55000305175782,184.40997558593756 57.750003051757815,184.40997558593756 57.95000305175782,184.40997558593756 C58.55000305175782,184.40997558593756 59.05000305175782,184.30997558593754 59.65000305175782,184.20997558593757 L92.85000305175782,298.5099755859376 C91.85000305175782,299.0099755859376 90.85000305175782,299.6099755859376 90.15000305175782,300.40997558593756 L45.250003051757815,267.80997558593754 C45.650003051757814,266.80997558593754 45.85000305175782,265.80997558593754 45.85000305175782,264.7099755859375 C45.85000305175781,261.40997558593756 43.750003051757815,258.5099755859376 40.750003051757815,257.40997558593756 zM104.55000305175781,341.5099755859376 L45.85000305175781,271.80997558593754 L88.45000305175782,302.80997558593754 C87.85000305175782,304.0099755859376 87.55000305175781,305.2099755859375 87.55000305175781,306.6099755859375 C87.55000305175781,311.50997558593747 91.55000305175781,315.40997558593745 96.35000305175781,315.40997558593745 C96.55000305175781,315.40997558593745 96.75000305175782,315.40997558593745 96.9500030517578,315.40997558593745 L104.85000305175781,341.40997558593745 C104.85000305175781,341.40997558593756 104.6500030517578,341.40997558593756 104.55000305175781,341.5099755859376 zM113.05000305175781,348.30997558593754 C113.1500030517578,347.90997558593756 113.25000305175782,347.40997558593756 113.25000305175782,346.90997558593756 C113.25000305175782,343.80997558593754 110.85000305175781,341.2099755859375 107.85000305175781,340.90997558593756 L99.85000305175781,314.7099755859375 C100.6500030517578,314.40997558593756 101.35000305175781,313.90997558593756 102.05000305175781,313.40997558593756 L180.2500030517578,384.7099755859375 L113.05000305175781,348.30997558593754 zM183.0500030517578,383.5099755859376 L103.85000305175781,311.30997558593754 C104.75000305175782,309.90997558593756 105.25000305175782,308.30997558593754 105.25000305175782,306.5099755859376 C105.25000305175782,303.7099755859376 103.95000305175782,301.2099755859376 101.95000305175782,299.6099755859376 L142.2500030517578,223.70997558593763 C143.7500030517578,224.40997558593767 145.3500030517578,224.70997558593763 147.0500030517578,224.70997558593763 C147.2500030517578,224.70997558593763 147.45000305175782,224.70997558593763 147.6500030517578,224.70997558593763 L184.7500030517578,382.30997558593765 C184.1500030517578,382.7099755859375 183.5500030517578,383.1099755859375 183.0500030517578,383.5099755859376 zM187.95000305175782,381.80997558593754 C187.85000305175782,381.80997558593754 187.6500030517578,381.80997558593754 187.5500030517578,381.80997558593754 L150.45000305175782,224.30997558593754 C151.5500030517578,224.00997558593758 152.6500030517578,223.50997558593758 153.6500030517578,222.80997558593754 L222.4500030517578,305.40997558593756 C220.9500030517578,307.2099755859375 220.05000305175778,309.5099755859376 220.05000305175778,312.0099755859376 C220.05000305175778,315.1099755859376 221.4500030517578,317.90997558593756 223.65000305175778,319.80997558593754 L190.0500030517578,382.1099755859375 C189.35000305175782,381.90997558593756 188.6500030517578,381.80997558593754 187.95000305175782,381.80997558593754 zM291.5500030517578,366.0099755859376 C291.5500030517578,366.30997558593754 291.5500030517578,366.6099755859376 291.5500030517578,366.90997558593756 L195.0500030517578,386.2099755859375 C194.45000305175782,385.00997558593747 193.6500030517578,384.00997558593747 192.5500030517578,383.30997558593754 L225.95000305175782,321.40997558593756 C227.25000305175783,322.0099755859376 228.75000305175783,322.30997558593754 230.25000305175783,322.30997558593754 C233.05000305175784,322.30997558593754 235.55000305175784,321.2099755859375 237.35000305175782,319.40997558593756 L292.5500030517578,362.0099755859376 C291.8500030517578,363.30997558593754 291.5500030517578,364.6099755859375 291.5500030517578,366.0099755859376 zM299.8500030517578,357.6099755859375 C297.65000305175784,357.6099755859375 295.65000305175784,358.50997558593747 294.15000305175784,359.90997558593745 L239.0500030517578,317.30997558593754 C239.95000305175782,315.80997558593754 240.45000305175782,314.0099755859376 240.45000305175782,312.1099755859375 C240.45000305175782,311.30997558593754 240.35000305175782,310.40997558593745 240.1500030517578,309.7099755859375 L350.7500030517578,274.80997558593754 C351.3500030517578,276.0099755859376 352.2500030517578,277.1099755859375 353.2500030517578,278.0099755859376 L302.5500030517578,358.2099755859376 C301.7500030517578,357.80997558593754 300.8500030517578,357.6099755859375 299.8500030517578,357.6099755859375 zM366.3500030517578,315.40997558593756 C366.3500030517578,317.1099755859376 366.8500030517578,318.6099755859376 367.65000305175784,319.90997558593756 L305.75000305175786,360.0099755859376 C305.55000305175787,359.80997558593754 305.3500030517579,359.6099755859376 305.15000305175784,359.40997558593756 L355.65000305175784,279.40997558593756 C357.0500030517578,280.1099755859376 358.65000305175784,280.5099755859376 360.3500030517578,280.5099755859376 C360.7500030517578,280.5099755859376 361.2500030517578,280.5099755859376 361.65000305175784,280.40997558593756 L370.75000305175786,308.0099755859376 C368.0500030517578,309.5099755859376 366.3500030517578,312.2099755859375 366.3500030517578,315.40997558593756 zM376.3500030517578,307.2099755859375 C375.7500030517578,307.1099755859375 375.2500030517578,307.00997558593747 374.65000305175784,307.00997558593747 C374.15000305175784,307.00997558593747 373.75000305175786,307.00997558593747 373.25000305175786,307.1099755859375 L364.25000305175786,279.7099755859375 C368.15000305175784,278.1099755859375 370.95000305175785,274.30997558593754 370.95000305175785,269.80997558593754 C370.95000305175785,267.1099755859375 369.95000305175785,264.6099755859375 368.25000305175786,262.7099755859375 L406.65000305175784,217.30997558593754 L376.3500030517578,307.2099755859375 z" stroke-linecap="round" stroke-width="0" id="svg_5"/>
</g>
		<g stroke-width="0" id="svg_6">
<path style="stroke: none; stroke-width: 1; stroke-dasharray: none; stroke-linecap: butt; stroke-dashoffset: 0; stroke-linejoin: miter; stroke-miterlimit: 4; fill: rgb(255,255,255); fill-rule: nonzero; opacity: 1;" vector-effect="non-scaling-stroke" d="M395.0500061035156,210.9100244140625 C395.0500061035156,212.71002441406245 395.3500061035156,214.5100244140625 396.0500061035156,216.11002441406254 L369.5500061035156,247.5100244140625 L376.8500061035156,170.31002441406253 L397.3500061035156,203.11002441406254 C395.9500061035156,205.4100244140625 395.0500061035156,208.0100244140625 395.0500061035156,210.9100244140625 z" stroke-linecap="round" stroke-width="0" id="svg_7"/>
</g>
		<g stroke-width="0" id="svg_8">
<path style="stroke: none; stroke-width: 1; stroke-dasharray: none; stroke-linecap: butt; stroke-dashoffset: 0; stroke-linejoin: miter; stroke-miterlimit: 4; fill: rgb(255,255,255); fill-rule: nonzero; opacity: 1;" vector-effect="non-scaling-stroke" d="M358.84998779296876,315.4100244140625 C358.84998779296876,316.4100244140625 358.9499877929688,317.31002441406247 359.1499877929688,318.21002441406245 L323.84998779296876,341.1100244140624 L357.54998779296875,287.81002441406247 L357.6499877929688,287.71002441406245 L357.6499877929688,287.81002441406247 L357.6499877929688,287.81002441406247 L363.1499877929688,304.6100244140624 C360.4499877929687,307.4100244140625 358.84998779296876,311.21002441406245 358.84998779296876,315.4100244140625 z" stroke-linecap="round" stroke-width="0" id="svg_9"/>
</g>
		<g stroke-width="0" id="svg_10">
<path style="stroke: none; stroke-width: 1; stroke-dasharray: none; stroke-linecap: butt; stroke-dashoffset: 0; stroke-linejoin: miter; stroke-miterlimit: 4; fill: rgb(255,255,255); fill-rule: nonzero; opacity: 1;" vector-effect="non-scaling-stroke" d="M283.0500030517578,362.40997558593756 L201.95000305175782,378.6099755859376 L228.35000305175782,329.6099755859376 C228.95000305175782,329.7099755859376 229.5500030517578,329.7099755859376 230.25000305175783,329.7099755859376 C233.15000305175784,329.7099755859376 235.85000305175782,329.0099755859376 238.35000305175782,327.80997558593765 L283.0500030517578,362.40997558593756 z" stroke-linecap="round" stroke-width="0" id="svg_11"/>
</g>
		<g stroke-width="0" id="svg_12">
<path style="stroke: none; stroke-width: 1; stroke-dasharray: none; stroke-linecap: butt; stroke-dashoffset: 0; stroke-linejoin: miter; stroke-miterlimit: 4; fill: rgb(255,255,255); fill-rule: nonzero; opacity: 1;" vector-effect="non-scaling-stroke" d="M342.4500061035156,283.71002441406245 L300.4500061035156,350.21002441406245 C300.2500061035156,350.21002441406245 300.0500061035156,350.21002441406245 299.85000610351557,350.21002441406245 C297.55000610351556,350.21002441406245 295.35000610351557,350.71002441406245 293.35000610351557,351.6100244140624 L293.35000610351557,351.6100244140624 L247.45000610351556,316.1100244140624 C247.65000610351555,315.31002441406247 247.75000610351557,314.5100244140624 247.85000610351557,313.6100244140624 L342.4500061035156,283.71002441406245 z" stroke-linecap="round" stroke-width="0" id="svg_13"/>
</g>
		<g stroke-width="0" id="svg_14">
<path style="stroke: none; stroke-width: 1; stroke-dasharray: none; stroke-linecap: butt; stroke-dashoffset: 0; stroke-linejoin: miter; stroke-miterlimit: 4; fill: rgb(255,255,255); fill-rule: nonzero; opacity: 1;" vector-effect="non-scaling-stroke" d="M53.250003051757815,266.21002441406245 C53.250003051757815,265.71002441406245 53.35000305175782,265.21002441406245 53.35000305175782,264.81002441406247 C53.35000305175782,260.1100244140624 51.250003051757815,256.0100244140625 47.95000305175782,253.11002441406242 L59.05000305175781,204.0100244140625 L83.55000305175781,288.31002441406247 L53.250003051757815,266.21002441406245 z" stroke-linecap="round" stroke-width="0" id="svg_15"/>
</g>
		<g stroke-width="0" id="svg_16">
<path style="stroke: none; stroke-width: 1; stroke-dasharray: none; stroke-linecap: butt; stroke-dashoffset: 0; stroke-linejoin: miter; stroke-miterlimit: 4; fill: rgb(255,255,255); fill-rule: nonzero; opacity: 1;" vector-effect="non-scaling-stroke" d="M131.75,224.80998779296874 L98.65,287.1099877929687 L69.85000000000001,187.9099877929687 L127.55000000000001,212.6099877929687 L127.55000000000001,212.70998779296872 C127.55000000000001,217.30998779296874 129.15,221.5099877929688 131.75,224.80998779296874 z" stroke-linecap="round" stroke-width="0" id="svg_17"/>
</g>
		<g stroke-width="0" id="svg_18">
<path style="stroke: none; stroke-width: 1; stroke-dasharray: none; stroke-linecap: butt; stroke-dashoffset: 0; stroke-linejoin: miter; stroke-miterlimit: 4; fill: rgb(255,255,255); fill-rule: nonzero; opacity: 1;" vector-effect="non-scaling-stroke" d="M112.1500030517578,310.71 C112.55000305175781,309.41 112.6500030517578,308.00999999999993 112.6500030517578,306.50999999999993 C112.6500030517578,303.21 111.6500030517578,300.00999999999993 109.85000305175781,297.4099999999999 L143.5500030517578,233.9099999999999 L175.1500030517578,368.20999999999987 L112.1500030517578,310.71 z" stroke-linecap="round" stroke-width="0" id="svg_19"/>
</g>
		<g stroke-width="0" id="svg_20">
<path style="stroke: none; stroke-width: 1; stroke-dasharray: none; stroke-linecap: butt; stroke-dashoffset: 0; stroke-linejoin: miter; stroke-miterlimit: 4; fill: rgb(255,255,255); fill-rule: nonzero; opacity: 1;" vector-effect="non-scaling-stroke" d="M215.5500030517578,322.0099877929688 L190.5500030517578,368.40998779296876 L160.45000305175782,240.6099877929688 L214.0500030517578,305.0099877929688 C213.0500030517578,307.20998779296883 212.5500030517578,309.6099877929688 212.5500030517578,312.20998779296883 C212.5500030517578,315.80998779296874 213.6500030517578,319.2099877929687 215.5500030517578,322.0099877929688 z" stroke-linecap="round" stroke-width="0" id="svg_21"/>
</g>
		<g stroke-width="0" id="svg_22">
<path style="stroke: none; stroke-width: 1; stroke-dasharray: none; stroke-linecap: butt; stroke-dashoffset: 0; stroke-linejoin: miter; stroke-miterlimit: 4; fill: rgb(255,255,255); fill-rule: nonzero; opacity: 1;" vector-effect="non-scaling-stroke" d="M262.15000610351564,184.41000000000003 L227.55000610351564,294.71 C226.75000610351563,294.81 225.95000610351565,295.00999999999993 225.25000610351563,295.21 L164.25000610351563,221.91000000000003 C165.65000610351564,219.31 166.45000610351562,216.31 166.55000610351564,213.20999999999998 L259.3500061035156,181.40999999999997 C260.2500061035156,182.41000000000003 261.15000610351564,183.51 262.15000610351564,184.41000000000003 z" stroke-linecap="round" stroke-width="0" id="svg_23"/>
</g>
		<g stroke-width="0" id="svg_24">
<path style="stroke: none; stroke-width: 1; stroke-dasharray: none; stroke-linecap: butt; stroke-dashoffset: 0; stroke-linejoin: miter; stroke-miterlimit: 4; fill: rgb(255,255,255); fill-rule: nonzero; opacity: 1;" vector-effect="non-scaling-stroke" d="M343.9500061035156,262.0099755859376 C343.0500061035156,263.90997558593756 342.4500061035156,266.0099755859376 342.2500061035156,268.2099755859376 L242.7500061035156,299.6099755859376 C242.4500061035156,299.30997558593765 242.2500061035156,299.1099755859376 241.9500061035156,298.80997558593765 L276.2500061035156,189.40997558593767 C278.4500061035156,189.40997558593767 280.5500061035156,189.0099755859377 282.5500061035156,188.30997558593765 L343.9500061035156,262.0099755859376 z" stroke-linecap="round" stroke-width="0" id="svg_25"/>
</g>
		<g stroke-width="0" id="svg_26">
<path style="stroke: none; stroke-width: 1; stroke-dasharray: none; stroke-linecap: butt; stroke-dashoffset: 0; stroke-linejoin: miter; stroke-miterlimit: 4; fill: rgb(255,255,255); fill-rule: nonzero; opacity: 1;" vector-effect="non-scaling-stroke" d="M362.85,160.60997558593755 L354.25,251.2099755859375 L293.75,178.7099755859375 C294.95,176.50997558593753 295.75,174.1099755859375 296.05,171.50997558593753 L358.95,157.2099755859375 C360.05,158.50997558593753 361.35,159.7099755859375 362.85,160.60997558593755 z" stroke-linecap="round" stroke-width="0" id="svg_27"/>
</g>
		<g stroke-width="0" id="svg_28">
<path style="stroke: none; stroke-width: 1; stroke-dasharray: none; stroke-linecap: butt; stroke-dashoffset: 0; stroke-linejoin: miter; stroke-miterlimit: 4; fill: rgb(255,255,255); fill-rule: nonzero; opacity: 1;" vector-effect="non-scaling-stroke" d="M360.94999389648433,124.70999389648432 L318.3499938964843,77.6099938964843 L349.94999389648433,91.30999389648429 C350.8499938964843,95.40999389648431 353.74999389648434,98.90999389648431 357.54999389648435,100.6099938964843 L360.94999389648433,124.70999389648432 z" stroke-linecap="round" stroke-width="0" id="svg_29"/>
</g>
		<g stroke-width="0" id="svg_30">
<path style="stroke: none; stroke-width: 1; stroke-dasharray: none; stroke-linecap: butt; stroke-dashoffset: 0; stroke-linejoin: miter; stroke-miterlimit: 4; fill: rgb(255,255,255); fill-rule: nonzero; opacity: 1;" vector-effect="non-scaling-stroke" d="M356.04998779296875,141.50998779296873 C355.84998779296876,141.9099877929687 355.74998779296874,142.4099877929687 355.6499877929688,142.80998779296874 L292.2499877929688,157.20998779296872 C290.3499877929688,154.6099877929687 287.8499877929688,152.4099877929687 284.9499877929688,150.9099877929687 L295.7499877929688,74.80998779296874 L356.04998779296875,141.50998779296873 z" stroke-linecap="round" stroke-width="0" id="svg_31"/>
</g>
		<g stroke-width="0" id="svg_32">
<path style="stroke: none; stroke-width: 1; stroke-dasharray: none; stroke-linecap: butt; stroke-dashoffset: 0; stroke-linejoin: miter; stroke-miterlimit: 4; fill: rgb(255,255,255); fill-rule: nonzero; opacity: 1;" vector-effect="non-scaling-stroke" d="M149.85000305175782,106.60998779296875 L140.85000305175782,194.20998779296872 C137.95000305175782,195.20998779296872 135.45000305175782,196.80998779296874 133.35000305175782,198.90998779296876 L74.55000305175783,173.70998779296878 C74.45000305175783,172.90998779296876 74.35000305175782,172.10998779296875 74.15000305175782,171.40998779296876 L149.85000305175782,106.60998779296875 z" stroke-linecap="round" stroke-width="0" id="svg_33"/>
</g>
		<g stroke-width="0" id="svg_34">
<path style="stroke: none; stroke-width: 1; stroke-dasharray: none; stroke-linecap: butt; stroke-dashoffset: 0; stroke-linejoin: miter; stroke-miterlimit: 4; fill: rgb(255,255,255); fill-rule: nonzero; opacity: 1;" vector-effect="non-scaling-stroke" d="M142.14999847412108,93.60998779296875 L72.74999847412107,153.00998779296873 L92.54999847412107,86.70998779296872 C94.74999847412107,86.00998779296873 96.64999847412106,84.70998779296872 98.14999847412106,83.00998779296873 L141.84999847412107,92.4099877929687 C141.9499984741211,92.80998779296874 142.04999847412108,93.20998779296872 142.14999847412108,93.60998779296875 z" stroke-linecap="round" stroke-width="0" id="svg_35"/>
</g>
		<g stroke-width="0" id="svg_36">
<path style="stroke: none; stroke-width: 1; stroke-dasharray: none; stroke-linecap: butt; stroke-dashoffset: 0; stroke-linejoin: miter; stroke-miterlimit: 4; fill: rgb(255,255,255); fill-rule: nonzero; opacity: 1;" vector-effect="non-scaling-stroke" d="M255.85000000000002,164.51001220703125 C255.65000000000003,165.31001220703126 255.55,166.11001220703128 255.45000000000002,167.01001220703125 L161.25,199.31001220703126 C159.65,197.61001220703122 157.85,196.21001220703124 155.75,195.21001220703124 L164.85,106.71001220703124 C166.75,106.21001220703124 168.45,105.41001220703123 170.04999999999998,104.41001220703123 L255.85000000000002,164.51001220703125 z" stroke-linecap="round" stroke-width="0" id="svg_37"/>
</g>
		<g stroke-width="0" id="svg_38">
<path style="stroke: none; stroke-width: 1; stroke-dasharray: none; stroke-linecap: butt; stroke-dashoffset: 0; stroke-linejoin: miter; stroke-miterlimit: 4; fill: rgb(255,255,255); fill-rule: nonzero; opacity: 1;" vector-effect="non-scaling-stroke" d="M281.25,71.21000610351558 L270.15,149.41000610351557 C267.95,150.0100061035156 265.95,151.0100061035156 264.15,152.21000610351558 L178.34999999999997,92.11000610351556 C178.34999999999997,91.91000610351557 178.44999999999996,91.71000610351558 178.44999999999996,91.51000610351554 L278.15,68.21000610351552 C279.05,69.41000610351563 280.15000000000003,70.3100061035156 281.25,71.21000610351558 z" stroke-linecap="round" stroke-width="0" id="svg_39"/>
</g>
		<g stroke-width="0" id="svg_40">
<path style="stroke: none; stroke-width: 1; stroke-dasharray: none; stroke-linecap: butt; stroke-dashoffset: 0; stroke-linejoin: miter; stroke-miterlimit: 4; fill: rgb(255,255,255); fill-rule: nonzero; opacity: 1;" vector-effect="non-scaling-stroke" d="M275.7499969482422,50.909987792968764 C275.3499969482422,51.80998779296874 275.0499969482422,52.80998779296874 274.7499969482422,53.80998779296874 L174.6499969482422,77.20998779296872 C174.44999694824222,76.9099877929687 174.1499969482422,76.6099877929687 173.94999694824222,76.30998779296874 L190.84999694824222,41.30998779296874 C195.84999694824222,41.00998779296873 200.24999694824223,38.30998779296874 202.94999694824222,34.30998779296874 L258.8499969482422,38.10998779296875 C261.14999694824223,42.30998779296874 265.5499969482422,45.10998779296875 270.64999694824223,45.10998779296875 C270.94999694824224,45.10998779296875 271.24999694824226,45.10998779296875 271.44999694824224,45.10998779296875 L275.7499969482422,50.909987792968764 z" stroke-linecap="round" stroke-width="0" id="svg_41"/>
</g>
		<g stroke-width="0" id="svg_42">
<path style="stroke: none; stroke-width: 1; stroke-dasharray: none; stroke-linecap: butt; stroke-dashoffset: 0; stroke-linejoin: miter; stroke-miterlimit: 4; fill: rgb(255,255,255); fill-rule: nonzero; opacity: 1;" vector-effect="non-scaling-stroke" d="M174.54999389648435,40.810012207031264 L160.34999389648436,70.11001220703128 L160.34999389648436,70.11001220703128 C160.24999389648437,70.11001220703128 160.14999389648438,70.11001220703128 160.04999389648435,70.11001220703128 C153.84999389648436,70.11001220703128 148.34999389648436,73.2100122070313 144.94999389648436,77.91001220703129 L112.24999389648436,70.81001220703126 L174.54999389648435,40.810012207031264 z" stroke-linecap="round" stroke-width="0" id="svg_43"/>
</g>
		<g stroke-width="0" id="svg_44">
<path style="stroke: none; stroke-width: 1; stroke-dasharray: none; stroke-linecap: butt; stroke-dashoffset: 0; stroke-linejoin: miter; stroke-miterlimit: 4; fill: rgb(255,255,255); fill-rule: nonzero; opacity: 1;" vector-effect="non-scaling-stroke" d="M507.95002441406245,159.40997558593756 L545.6500244140625,136.10997558593755 L549.6500244140625,133.60997558593755 L555.6500244140625,137.30997558593754 L591.3500244140625,159.30997558593754 L592.9500244140626,158.30997558593754 L632.7500244140625,133.7099755859375 L633.0500244140625,133.50997558593753 L549.6500244140625,85.80997558593754 L466.2500244140625,133.60997558593755 L466.2500244140625,278.0099755859376 L549.6500244140625,326.1099755859376 L632.7500244140625,278.1099755859376 L592.9500244140626,253.50997558593758 L555.6500244140626,274.5099755859376 L549.6500244140626,277.90997558593756 L545.6500244140626,275.80997558593754 L507.9500244140626,255.50997558593758 L507.9500244140626,159.40997558593756 z" stroke-linecap="round" stroke-width="0" id="svg_45"/>
</g>
		<g stroke-width="0" id="svg_46">
<path style="stroke: none; stroke-width: 1; stroke-dasharray: none; stroke-linecap: butt; stroke-dashoffset: 0; stroke-linejoin: miter; stroke-miterlimit: 4; fill: rgb(255,255,255); fill-rule: nonzero; opacity: 1;" vector-effect="non-scaling-stroke" d="M704.8499999999999,327.21001220703124 L663.1499999999999,304.81001220703126 L663.1499999999999,134.71001220703124 L746.5499999999998,86.91001220703123 L829.9499999999998,134.71001220703124 L829.9499999999998,304.9100122070312 L788.2499999999998,327.31001220703115 L788.2499999999998,256.81001220703115 L746.5499999999997,279.2100122070311 L704.8499999999997,256.81001220703115 L704.8499999999997,327.21001220703124 zM746.65,231.0100122070313 L788.35,208.61001220703133 L788.35,160.5100122070313 L746.65,134.7100122070313 L704.9499999999999,160.5100122070313 L704.9499999999999,208.61001220703133 L746.65,231.0100122070313 z" stroke-linecap="round" stroke-width="0" id="svg_47"/>
</g>
		<g stroke-width="0" id="svg_48">
<path style="stroke: none; stroke-width: 1; stroke-dasharray: none; stroke-linecap: butt; stroke-dashoffset: 0; stroke-linejoin: miter; stroke-miterlimit: 4; fill: rgb(255,255,255); fill-rule: nonzero; opacity: 1;" vector-effect="non-scaling-stroke" d="M847.3499877929687,138.61002441406248 L847.3499877929687,99.91002441406249 L986.6499877929687,99.91002441406249 L986.6499877929687,138.61002441406248 L940.0499877929686,138.61002441406248 L940.0499877929686,300.6100244140624 L893.8499877929686,329.4100244140624 L893.8499877929686,138.61002441406248 L847.3499877929687,138.61002441406248 z" stroke-linecap="round" stroke-width="0" id="svg_49"/>
</g>
		<g stroke-width="0" id="svg_50">
<polygon style="stroke: none; stroke-width: 1; stroke-dasharray: none; stroke-linecap: butt; stroke-dashoffset: 0; stroke-linejoin: miter; stroke-miterlimit: 4; fill: rgb(255,255,255); fill-rule: nonzero; opacity: 1;" vector-effect="non-scaling-stroke" points="1050.0499992370605,99.91 1003.4500007629395,99.91 1003.4500007629395,138.60999694824218 1003.4500007629395,300.60999694824216 1050.0499992370605,329.40999999999997 1050.0499992370605,138.60999694824218 " stroke-width="0" id="svg_51"/>
</g>
		<g stroke-width="0" id="svg_52">
<path style="stroke: none; stroke-width: 1; stroke-dasharray: none; stroke-linecap: butt; stroke-dashoffset: 0; stroke-linejoin: miter; stroke-miterlimit: 4; fill: rgb(255,255,255); fill-rule: nonzero; opacity: 1;" vector-effect="non-scaling-stroke" d="M586.1499755859376,381.7099755859375 C583.6499755859376,379.40997558593756 580.7499755859376,377.6099755859375 577.3499755859376,376.30997558593754 C573.9499755859376,375.0099755859376 570.1499755859376,374.40997558593756 565.9499755859376,374.40997558593756 C561.6499755859377,374.40997558593756 557.7499755859376,375.1099755859376 554.2499755859376,376.40997558593756 C550.7499755859376,377.7099755859375 547.7499755859376,379.6099755859376 545.2499755859376,382.1099755859376 C542.7499755859376,384.5099755859376 540.7499755859376,387.40997558593756 539.4499755859376,390.7099755859376 C538.0499755859377,394.0099755859376 537.4499755859376,397.5099755859376 537.4499755859376,401.4099755859377 C537.4499755859376,405.30997558593765 538.1499755859377,408.9099755859377 539.4499755859376,412.2099755859376 C540.7499755859376,415.5099755859376 542.7499755859376,418.4099755859377 545.1499755859377,420.80997558593765 C547.6499755859377,423.2099755859376 550.6499755859377,425.1099755859376 554.1499755859377,426.5099755859377 C557.6499755859377,427.9099755859377 561.4499755859376,428.5099755859377 565.7499755859377,428.5099755859377 C568.1499755859377,428.5099755859377 570.4499755859378,428.30997558593765 572.9499755859378,427.80997558593765 C575.3499755859377,427.30997558593765 577.4499755859378,426.6099755859376 579.2499755859377,425.7099755859376 L577.3499755859377,420.30997558593765 C575.4499755859378,421.2099755859376 573.5499755859378,421.80997558593765 571.5499755859378,422.2099755859376 C569.5499755859378,422.6099755859376 567.6499755859378,422.80997558593765 565.7499755859378,422.80997558593765 C562.4499755859379,422.80997558593765 559.5499755859378,422.30997558593765 556.8499755859378,421.2099755859376 C554.1499755859378,420.1099755859376 551.8499755859378,418.7099755859376 549.9499755859379,416.80997558593765 C548.0499755859379,414.9099755859377 546.5499755859379,412.7099755859376 545.5499755859379,410.0099755859377 C544.5499755859379,407.4099755859377 544.0499755859379,404.5099755859377 544.0499755859379,401.30997558593765 C544.0499755859379,398.2099755859376 544.5499755859379,395.4099755859377 545.6499755859379,392.80997558593765 C546.6499755859379,390.2099755859376 548.1499755859379,388.0099755859377 550.1499755859379,386.0099755859377 C552.0499755859379,384.1099755859377 554.349975585938,382.6099755859377 557.1499755859379,381.5099755859377 C559.849975585938,380.4099755859377 562.849975585938,379.9099755859377 566.1499755859379,379.9099755859377 C569.4499755859379,379.9099755859377 572.349975585938,380.4099755859377 575.0499755859379,381.4099755859377 C577.7499755859379,382.4099755859377 580.0499755859379,383.80997558593765 582.0499755859379,385.6099755859377 C584.0499755859379,387.4099755859377 585.5499755859379,389.5099755859377 586.5499755859379,392.0099755859377 C587.5499755859379,394.5099755859377 588.0499755859379,397.20997558593774 588.0499755859379,400.20997558593774 C588.0499755859379,402.5099755859377 587.8499755859378,404.4099755859378 587.5499755859379,405.80997558593776 C587.2499755859379,407.30997558593776 586.7499755859379,408.4099755859378 586.0499755859379,409.1099755859377 C585.3499755859378,409.80997558593776 584.5499755859379,410.20997558593774 583.6499755859379,410.20997558593774 C582.9499755859379,410.20997558593774 582.2499755859379,409.9099755859378 581.6499755859379,409.4099755859378 C581.0499755859379,408.80997558593776 580.7499755859379,407.9099755859378 580.7499755859379,406.5099755859378 L580.7499755859379,387.4099755859378 L572.7499755859379,387.4099755859378 L572.7499755859379,390.9099755859378 C572.0499755859379,390.10997558593783 571.2499755859379,389.4099755859378 570.349975585938,388.80997558593776 C568.549975585938,387.6099755859377 566.2499755859379,387.1099755859377 563.6499755859379,387.1099755859377 C561.0499755859379,387.1099755859377 558.7499755859379,387.70997558593774 556.7499755859379,388.9099755859377 C554.6499755859379,390.1099755859377 553.0499755859379,391.80997558593765 551.849975585938,394.1099755859377 C550.6499755859379,396.30997558593776 550.049975585938,398.9099755859377 550.049975585938,401.9099755859377 C550.049975585938,404.80997558593765 550.649975585938,407.4099755859377 551.849975585938,409.7099755859376 C553.049975585938,411.9099755859377 554.7499755859379,413.7099755859376 556.849975585938,414.9099755859377 C558.949975585938,416.2099755859376 561.2499755859379,416.80997558593765 563.7499755859379,416.80997558593765 C566.449975585938,416.80997558593765 568.7499755859379,416.2099755859376 570.5499755859379,415.0099755859377 C571.8499755859378,414.20997558593774 572.9499755859379,413.0099755859377 573.8499755859378,411.6099755859377 C574.2499755859378,412.70997558593774 574.8499755859378,413.6099755859377 575.5499755859379,414.4099755859377 C577.1499755859379,416.0099755859377 579.2499755859379,416.7099755859376 581.9499755859379,416.7099755859376 C584.3499755859378,416.7099755859376 586.4499755859379,416.1099755859376 588.2499755859378,414.80997558593765 C590.0499755859378,413.5099755859377 591.4499755859379,411.6099755859376 592.4499755859379,409.1099755859376 C593.4499755859379,406.6099755859376 593.9499755859379,403.6099755859376 593.9499755859379,400.1099755859376 C593.9499755859379,396.40997558593756 593.2499755859378,393.1099755859376 591.9499755859379,389.90997558593756 C590.5499755859375,386.7099755859375 588.6499755859376,384.0099755859376 586.1499755859376,381.7099755859375 zM571.9499755859375,406.1099755859375 C571.3499755859375,407.30997558593754 570.4499755859375,408.30997558593754 569.3499755859375,408.90997558593745 C568.2499755859375,409.50997558593747 566.9499755859375,409.90997558593745 565.5499755859375,409.90997558593745 C564.0499755859375,409.90997558593745 562.8499755859375,409.6099755859375 561.6499755859376,408.90997558593745 C560.5499755859375,408.2099755859374 559.6499755859376,407.3099755859374 559.0499755859375,406.1099755859375 C558.4499755859375,404.90997558593745 558.1499755859376,403.40997558593745 558.1499755859376,401.80997558593754 C558.1499755859376,400.1099755859375 558.4499755859375,398.7099755859375 559.0499755859375,397.5099755859376 C559.6499755859376,396.30997558593754 560.5499755859375,395.40997558593756 561.6499755859376,394.7099755859376 C562.7499755859376,394.0099755859376 564.0499755859375,393.7099755859376 565.5499755859375,393.7099755859376 C566.9499755859375,393.7099755859376 568.2499755859376,394.0099755859376 569.3499755859375,394.7099755859376 C570.4499755859375,395.30997558593765 571.3499755859375,396.30997558593765 571.9499755859375,397.4099755859377 C572.5499755859375,398.6099755859377 572.9499755859375,400.0099755859377 572.9499755859375,401.80997558593765 C572.9499755859375,403.40997558593756 572.6499755859376,404.90997558593756 571.9499755859375,406.1099755859375 z" stroke-linecap="round" stroke-width="0" id="svg_53"/>
</g>
		<g stroke-width="0" id="svg_54">
<path style="stroke: none; stroke-width: 1; stroke-dasharray: none; stroke-linecap: butt; stroke-dashoffset: 0; stroke-linejoin: miter; stroke-miterlimit: 4; fill: rgb(255,255,255); fill-rule: nonzero; opacity: 1;" vector-effect="non-scaling-stroke" d="M611.5499877929688,392.71002441406245 C612.8499877929687,392.0100244140624 614.2499877929688,391.71002441406245 615.7499877929688,391.71002441406245 C617.2499877929688,391.71002441406245 618.5499877929688,392.0100244140624 619.7499877929688,392.71002441406245 C620.9499877929688,393.4100244140625 622.0499877929688,394.5100244140624 622.8499877929688,396.0100244140624 L629.9499877929688,392.1100244140624 C628.8499877929688,389.5100244140624 627.0499877929689,387.6100244140624 624.5499877929689,386.21002441406245 C622.0499877929689,384.81002441406247 619.1499877929689,384.1100244140624 615.7499877929689,384.1100244140624 C612.3499877929689,384.1100244140624 609.2499877929689,384.81002441406247 606.6499877929689,386.21002441406245 C603.9499877929688,387.6100244140624 601.9499877929688,389.5100244140624 600.3499877929689,392.0100244140624 C598.8499877929689,394.4100244140624 598.049987792969,397.21002441406245 598.049987792969,400.4100244140624 C598.049987792969,403.5100244140624 598.8499877929689,406.4100244140624 600.3499877929689,408.81002441406235 C601.8499877929689,411.31002441406235 603.949987792969,413.21002441406233 606.6499877929689,414.6100244140623 C609.3499877929689,416.0100244140623 612.3499877929689,416.71002441406233 615.7499877929689,416.71002441406233 C619.0499877929689,416.71002441406233 622.0499877929689,416.0100244140623 624.5499877929689,414.6100244140623 C627.0499877929689,413.21002441406233 628.8499877929688,411.21002441406233 629.9499877929688,408.71002441406233 L622.8499877929688,404.81002441406235 C621.9499877929688,406.31002441406235 620.9499877929688,407.4100244140624 619.7499877929688,408.1100244140623 C618.5499877929688,408.81002441406235 617.1499877929688,409.1100244140623 615.7499877929688,409.1100244140623 C614.2499877929688,409.1100244140623 612.8499877929688,408.81002441406235 611.5499877929688,408.1100244140623 C610.2499877929688,407.41002441406226 609.2499877929688,406.41002441406226 608.5499877929688,405.1100244140623 C607.8499877929687,403.81002441406235 607.4499877929687,402.21002441406233 607.4499877929687,400.41002441406226 C607.4499877929687,398.6100244140623 607.8499877929687,397.0100244140623 608.5499877929688,395.7100244140622 C609.3499877929687,394.4100244140625 610.3499877929687,393.4100244140625 611.5499877929688,392.71002441406245 z" stroke-linecap="round" stroke-width="0" id="svg_55"/>
</g>
		<g stroke-width="0" id="svg_56">
<path style="stroke: none; stroke-width: 1; stroke-dasharray: none; stroke-linecap: butt; stroke-dashoffset: 0; stroke-linejoin: miter; stroke-miterlimit: 4; fill: rgb(255,255,255); fill-rule: nonzero; opacity: 1;" vector-effect="non-scaling-stroke" d="M659.349970703125,387.5099755859376 C656.649970703125,385.2099755859376 652.949970703125,384.1099755859376 648.049970703125,384.1099755859376 C645.549970703125,384.1099755859376 643.049970703125,384.40997558593756 640.6499707031251,385.1099755859376 C638.2499707031251,385.7099755859376 636.1499707031251,386.7099755859376 634.3499707031251,388.0099755859376 L637.5499707031252,394.40997558593756 C638.7499707031252,393.5099755859376 640.1499707031252,392.80997558593754 641.7499707031252,392.2099755859375 C643.3499707031252,391.7099755859375 645.0499707031252,391.40997558593756 646.7499707031252,391.40997558593756 C649.2499707031252,391.40997558593756 651.0499707031252,392.0099755859376 652.2499707031252,393.1099755859376 C653.4499707031252,394.2099755859376 654.0499707031252,395.7099755859376 654.0499707031252,397.7099755859376 L654.0499707031252,397.80997558593765 L646.7499707031252,397.80997558593765 C643.4499707031252,397.80997558593765 640.8499707031252,398.2099755859376 638.8499707031252,399.0099755859377 C636.8499707031252,399.80997558593765 635.3499707031252,400.9099755859377 634.4499707031252,402.30997558593765 C633.5499707031253,403.7099755859376 633.0499707031253,405.4099755859377 633.0499707031253,407.2099755859376 C633.0499707031253,409.0099755859376 633.5499707031253,410.6099755859376 634.4499707031252,412.1099755859376 C635.4499707031252,413.6099755859376 636.7499707031252,414.7099755859376 638.5499707031253,415.5099755859376 C640.3499707031252,416.30997558593754 642.4499707031252,416.80997558593754 644.8499707031252,416.80997558593754 C647.6499707031252,416.80997558593754 649.9499707031252,416.30997558593754 651.6499707031252,415.2099755859375 C652.8499707031252,414.50997558593747 653.7499707031252,413.50997558593747 654.4499707031251,412.40997558593756 L654.4499707031251,416.40997558593756 L663.0499707031252,416.40997558593756 L663.0499707031252,398.30997558593754 C663.449970703125,393.30997558593754 662.049970703125,389.80997558593754 659.349970703125,387.5099755859376 zM651.549970703125,409.5099755859376 C650.349970703125,410.2099755859376 648.949970703125,410.6099755859376 647.349970703125,410.6099755859376 C645.749970703125,410.6099755859376 644.549970703125,410.30997558593765 643.649970703125,409.6099755859376 C642.749970703125,408.90997558593756 642.249970703125,408.0099755859376 642.249970703125,406.80997558593765 C642.249970703125,405.7099755859376 642.649970703125,404.9099755859377 643.449970703125,404.1099755859376 C644.249970703125,403.40997558593756 645.749970703125,403.0099755859376 647.949970703125,403.0099755859376 L654.249970703125,403.0099755859376 L654.249970703125,406.2099755859376 C653.6499707031251,407.7099755859375 652.849970703125,408.80997558593754 651.549970703125,409.5099755859376 z" stroke-linecap="round" stroke-width="0" id="svg_57"/>
</g>
		<g stroke-width="0" id="svg_58">
<path style="stroke: none; stroke-width: 1; stroke-dasharray: none; stroke-linecap: butt; stroke-dashoffset: 0; stroke-linejoin: miter; stroke-miterlimit: 4; fill: rgb(255,255,255); fill-rule: nonzero; opacity: 1;" vector-effect="non-scaling-stroke" d="M683.0499877929688,392.71002441406245 C684.3499877929687,392.0100244140624 685.7499877929688,391.71002441406245 687.2499877929688,391.71002441406245 C688.7499877929688,391.71002441406245 690.0499877929688,392.0100244140624 691.2499877929688,392.71002441406245 C692.4499877929688,393.4100244140625 693.5499877929688,394.5100244140624 694.3499877929688,396.0100244140624 L701.4499877929688,392.1100244140624 C700.3499877929688,389.5100244140624 698.5499877929689,387.6100244140624 696.0499877929689,386.21002441406245 C693.5499877929689,384.81002441406247 690.6499877929689,384.1100244140624 687.2499877929689,384.1100244140624 C683.8499877929689,384.1100244140624 680.7499877929689,384.81002441406247 678.1499877929689,386.21002441406245 C675.4499877929688,387.6100244140624 673.4499877929688,389.5100244140624 671.8499877929689,392.0100244140624 C670.3499877929689,394.4100244140624 669.549987792969,397.21002441406245 669.549987792969,400.4100244140624 C669.549987792969,403.5100244140624 670.3499877929689,406.4100244140624 671.8499877929689,408.81002441406235 C673.3499877929689,411.31002441406235 675.449987792969,413.21002441406233 678.1499877929689,414.6100244140623 C680.8499877929689,416.0100244140623 683.8499877929689,416.71002441406233 687.2499877929689,416.71002441406233 C690.5499877929689,416.71002441406233 693.5499877929689,416.0100244140623 696.0499877929689,414.6100244140623 C698.5499877929689,413.21002441406233 700.3499877929688,411.21002441406233 701.4499877929688,408.71002441406233 L694.3499877929688,404.81002441406235 C693.4499877929688,406.31002441406235 692.4499877929688,407.4100244140624 691.2499877929688,408.1100244140623 C690.0499877929688,408.81002441406235 688.6499877929688,409.1100244140623 687.2499877929688,409.1100244140623 C685.7499877929688,409.1100244140623 684.3499877929688,408.81002441406235 683.0499877929688,408.1100244140623 C681.7499877929688,407.41002441406226 680.7499877929688,406.41002441406226 680.0499877929688,405.1100244140623 C679.3499877929687,403.81002441406235 678.9499877929687,402.21002441406233 678.9499877929687,400.41002441406226 C678.9499877929687,398.6100244140623 679.3499877929687,397.0100244140623 680.0499877929688,395.7100244140622 C680.7499877929688,394.4100244140625 681.7499877929688,393.4100244140625 683.0499877929688,392.71002441406245 z" stroke-linecap="round" stroke-width="0" id="svg_59"/>
</g>
		<g stroke-width="0" id="svg_60">
<path style="stroke: none; stroke-width: 1; stroke-dasharray: none; stroke-linecap: butt; stroke-dashoffset: 0; stroke-linejoin: miter; stroke-miterlimit: 4; fill: rgb(255,255,255); fill-rule: nonzero; opacity: 1;" vector-effect="non-scaling-stroke" d="M717.4500244140625,392.71002441406245 C718.7500244140624,392.0100244140624 720.1500244140625,391.71002441406245 721.6500244140625,391.71002441406245 C723.1500244140625,391.71002441406245 724.4500244140625,392.0100244140624 725.6500244140625,392.71002441406245 C726.8500244140625,393.4100244140625 727.9500244140625,394.5100244140624 728.7500244140625,396.0100244140624 L735.8500244140625,392.1100244140624 C734.7500244140625,389.5100244140624 732.9500244140626,387.6100244140624 730.4500244140626,386.21002441406245 C727.9500244140626,384.81002441406247 725.0500244140626,384.1100244140624 721.6500244140626,384.1100244140624 C718.2500244140626,384.1100244140624 715.1500244140626,384.81002441406247 712.5500244140626,386.21002441406245 C709.8500244140625,387.6100244140624 707.8500244140625,389.5100244140624 706.2500244140626,392.0100244140624 C704.7500244140626,394.4100244140624 703.9500244140627,397.21002441406245 703.9500244140627,400.4100244140624 C703.9500244140627,403.5100244140624 704.7500244140626,406.4100244140624 706.2500244140626,408.81002441406235 C707.7500244140626,411.31002441406235 709.8500244140627,413.21002441406233 712.5500244140626,414.6100244140623 C715.2500244140626,416.0100244140623 718.2500244140626,416.71002441406233 721.6500244140626,416.71002441406233 C724.9500244140626,416.71002441406233 727.9500244140626,416.0100244140623 730.4500244140626,414.6100244140623 C732.9500244140626,413.21002441406233 734.7500244140625,411.21002441406233 735.8500244140625,408.71002441406233 L728.7500244140625,404.81002441406235 C727.8500244140625,406.31002441406235 726.8500244140625,407.4100244140624 725.6500244140625,408.1100244140623 C724.4500244140625,408.81002441406235 723.0500244140625,409.1100244140623 721.6500244140625,409.1100244140623 C720.1500244140625,409.1100244140623 718.7500244140625,408.81002441406235 717.4500244140625,408.1100244140623 C716.1500244140625,407.41002441406226 715.1500244140625,406.41002441406226 714.4500244140625,405.1100244140623 C713.7500244140624,403.81002441406235 713.3500244140624,402.21002441406233 713.3500244140624,400.41002441406226 C713.3500244140624,398.6100244140623 713.7500244140624,397.0100244140623 714.4500244140625,395.7100244140622 C715.2500244140625,394.4100244140625 716.2500244140625,393.4100244140625 717.4500244140625,392.71002441406245 z" stroke-linecap="round" stroke-width="0" id="svg_61"/>
</g>
		<g stroke-width="0" id="svg_62">
<path style="stroke: none; stroke-width: 1; stroke-dasharray: none; stroke-linecap: butt; stroke-dashoffset: 0; stroke-linejoin: miter; stroke-miterlimit: 4; fill: rgb(255,255,255); fill-rule: nonzero; opacity: 1;" vector-effect="non-scaling-stroke" d="M764.0500122070313,400.31002441406247 C764.0500122070313,402.21002441406245 763.7500122070313,403.81002441406247 763.0500122070313,405.0100244140625 C762.4500122070312,406.31002441406247 761.5500122070313,407.21002441406256 760.4500122070312,407.81002441406247 C759.3500122070312,408.4100244140625 758.0500122070313,408.71002441406245 756.6500122070313,408.71002441406245 C754.6500122070313,408.71002441406245 753.0500122070313,408.1100244140624 751.9500122070312,406.81002441406247 C750.8500122070312,405.6100244140624 750.2500122070312,403.6100244140624 750.2500122070312,400.9100244140625 L750.2500122070312,384.4100244140625 L741.0500122070313,384.4100244140625 L741.0500122070313,402.31002441406247 C741.0500122070313,405.5100244140625 741.6500122070313,408.21002441406245 742.7500122070313,410.31002441406247 C743.8500122070313,412.4100244140625 745.4500122070314,414.0100244140625 747.5500122070313,415.0100244140625 C749.5500122070313,416.0100244140625 751.9500122070312,416.5100244140625 754.6500122070313,416.5100244140625 C757.0500122070313,416.5100244140625 759.3500122070313,415.9100244140625 761.3500122070313,414.81002441406247 C762.5500122070314,414.1100244140624 763.5500122070314,413.31002441406247 764.4500122070314,412.21002441406245 L764.4500122070314,416.0100244140624 L773.1500122070314,416.0100244140624 L773.1500122070314,384.31002441406235 L764.0500122070313,384.31002441406235 L764.0500122070313,400.31002441406247 z" stroke-linecap="round" stroke-width="0" id="svg_63"/>
</g>
		<g stroke-width="0" id="svg_64">
<path style="stroke: none; stroke-width: 1; stroke-dasharray: none; stroke-linecap: butt; stroke-dashoffset: 0; stroke-linejoin: miter; stroke-miterlimit: 4; fill: rgb(255,255,255); fill-rule: nonzero; opacity: 1;" vector-effect="non-scaling-stroke" d="M807.7500122070313,385.6100244140624 C805.7500122070313,384.6100244140624 803.5500122070313,384.1100244140624 800.9500122070314,384.1100244140624 C798.2500122070313,384.1100244140624 795.8500122070313,384.71002441406245 793.6500122070314,385.81002441406247 C792.3500122070315,386.5100244140625 791.3500122070315,387.31002441406247 790.4500122070314,388.31002441406247 L790.4500122070314,384.5100244140625 L781.6500122070314,384.5100244140625 L781.6500122070314,416.21002441406256 L790.8500122070315,416.21002441406256 L790.8500122070315,400.5100244140625 C790.8500122070315,398.5100244140625 791.1500122070314,396.9100244140625 791.8500122070315,395.71002441406256 C792.4500122070315,394.5100244140625 793.4500122070315,393.61002441406254 794.5500122070315,392.9100244140626 C795.7500122070315,392.3100244140626 797.0500122070315,392.0100244140626 798.4500122070315,392.0100244140626 C800.4500122070315,392.0100244140626 802.0500122070315,392.61002441406265 803.1500122070315,393.8100244140626 C804.2500122070315,395.0100244140626 804.8500122070316,396.9100244140626 804.8500122070316,399.5100244140626 L804.8500122070316,416.2100244140627 L814.0500122070316,416.2100244140627 L814.0500122070316,398.0100244140626 C814.0500122070316,394.8100244140626 813.4500122070316,392.11002441406265 812.3500122070316,390.11002441406265 C811.3500122070312,388.1100244140624 809.7500122070313,386.6100244140624 807.7500122070313,385.6100244140624 z" stroke-linecap="round" stroke-width="0" id="svg_65"/>
</g>
		<g stroke-width="0" id="svg_66">
<path style="stroke: none; stroke-width: 1; stroke-dasharray: none; stroke-linecap: butt; stroke-dashoffset: 0; stroke-linejoin: miter; stroke-miterlimit: 4; fill: rgb(255,255,255); fill-rule: nonzero; opacity: 1;" vector-effect="non-scaling-stroke" d="M845.7500244140625,386.1100244140624 C843.2500244140625,384.81002441406247 840.4500244140626,384.1100244140624 837.3500244140625,384.1100244140624 C834.1500244140625,384.1100244140624 831.2500244140625,384.81002441406247 828.6500244140625,386.21002441406245 C826.0500244140625,387.6100244140624 824.0500244140625,389.5100244140624 822.6500244140625,392.0100244140624 C821.2500244140625,394.5100244140624 820.4500244140625,397.31002441406235 820.4500244140625,400.4100244140624 C820.4500244140625,403.5100244140624 821.1500244140625,406.31002441406235 822.6500244140625,408.81002441406235 C824.1500244140625,411.31002441406235 826.2500244140625,413.21002441406233 828.9500244140625,414.6100244140623 C831.6500244140625,416.0100244140623 834.8500244140624,416.71002441406233 838.4500244140625,416.71002441406233 C841.3500244140624,416.71002441406233 843.8500244140624,416.31002441406235 846.0500244140625,415.4100244140624 C848.2500244140625,414.5100244140624 850.0500244140625,413.21002441406233 851.5500244140625,411.6100244140624 L846.6500244140625,406.31002441406247 C845.5500244140625,407.31002441406247 844.4500244140625,408.1100244140624 843.1500244140625,408.6100244140624 C841.8500244140625,409.1100244140624 840.4500244140625,409.4100244140624 838.7500244140625,409.4100244140624 C836.8500244140625,409.4100244140624 835.1500244140625,409.1100244140624 833.7500244140625,408.4100244140624 C832.3500244140625,407.71002441406233 831.2500244140625,406.71002441406233 830.5500244140625,405.4100244140624 C830.1500244140625,404.71002441406233 829.8500244140624,403.9100244140624 829.6500244140625,403.0100244140624 L853.6500244140625,403.0100244140624 C853.6500244140625,402.6100244140624 853.7500244140625,402.21002441406245 853.7500244140625,401.71002441406245 C853.7500244140625,401.21002441406245 853.8500244140625,400.81002441406247 853.8500244140625,400.5100244140624 C853.8500244140625,397.1100244140624 853.1500244140625,394.21002441406245 851.6500244140625,391.71002441406245 C850.1500244140625,389.31002441406247 848.2500244140625,387.4100244140625 845.7500244140625,386.1100244140624 zM833.2500244140625,392.0100244140625 C834.4500244140626,391.31002441406247 835.8500244140625,391.0100244140625 837.4500244140626,391.0100244140625 C839.0500244140626,391.0100244140625 840.3500244140625,391.31002441406247 841.5500244140626,392.0100244140625 C842.7500244140626,392.71002441406256 843.6500244140626,393.61002441406254 844.3500244140625,394.9100244140625 C844.7500244140625,395.71002441406245 845.0500244140626,396.61002441406254 845.1500244140625,397.61002441406254 L829.5500244140625,397.61002441406254 C829.7500244140625,396.61002441406254 829.9500244140625,395.71002441406256 830.4500244140625,394.9100244140625 C831.0500244140625,393.71002441406245 832.0500244140625,392.71002441406245 833.2500244140625,392.0100244140625 z" stroke-linecap="round" stroke-width="0" id="svg_67"/>
</g>
		<g stroke-width="0" id="svg_68">
<path style="stroke: none; stroke-width: 1; stroke-dasharray: none; stroke-linecap: butt; stroke-dashoffset: 0; stroke-linejoin: miter; stroke-miterlimit: 4; fill: rgb(255,255,255); fill-rule: nonzero; opacity: 1;" vector-effect="non-scaling-stroke" d="M907.2499755859376,385.6099755859375 C905.3499755859376,384.6099755859375 903.0499755859375,384.1099755859375 900.5499755859375,384.1099755859375 C897.4499755859375,384.1099755859375 894.7499755859376,384.80997558593754 892.4499755859375,386.30997558593754 C891.1499755859376,387.1099755859375 890.0499755859375,388.1099755859375 889.1499755859376,389.30997558593754 C888.4499755859375,388.1099755859375 887.4499755859375,387.1099755859375 886.2499755859376,386.30997558593754 C884.0499755859375,384.80997558593754 881.4499755859376,384.1099755859375 878.5499755859375,384.1099755859375 C875.9499755859375,384.1099755859375 873.6499755859376,384.7099755859375 871.6499755859376,385.80997558593754 C870.4499755859375,386.40997558593756 869.4499755859375,387.30997558593754 868.6499755859376,388.2099755859375 L868.6499755859376,384.6099755859375 L859.8499755859376,384.6099755859375 L859.8499755859376,416.30997558593754 L869.0499755859377,416.30997558593754 L869.0499755859377,400.40997558593756 C869.0499755859377,398.5099755859376 869.3499755859376,396.90997558593756 869.9499755859376,395.7099755859375 C870.5499755859377,394.50997558593747 871.3499755859376,393.6099755859375 872.4499755859376,393.00997558593747 C873.5499755859377,392.40997558593745 874.7499755859376,392.1099755859375 876.0499755859377,392.1099755859375 C878.0499755859377,392.1099755859375 879.5499755859377,392.7099755859375 880.5499755859377,393.90997558593745 C881.5499755859377,395.1099755859375 882.1499755859377,397.00997558593747 882.1499755859377,399.6099755859375 L882.1499755859377,416.30997558593754 L891.3499755859377,416.30997558593754 L891.3499755859377,400.40997558593756 C891.3499755859377,398.5099755859376 891.6499755859377,396.90997558593756 892.2499755859377,395.7099755859375 C892.8499755859377,394.50997558593747 893.6499755859377,393.6099755859375 894.6499755859377,393.00997558593747 C895.7499755859377,392.40997558593745 896.9499755859376,392.1099755859375 898.3499755859377,392.1099755859375 C900.2499755859377,392.1099755859375 901.7499755859377,392.7099755859375 902.7499755859377,393.90997558593745 C903.7499755859377,395.1099755859375 904.3499755859377,397.00997558593747 904.3499755859377,399.6099755859375 L904.3499755859377,416.30997558593754 L913.5499755859378,416.30997558593754 L913.5499755859378,398.1099755859375 C913.5499755859378,394.90997558593745 912.9499755859378,392.2099755859375 911.8499755859377,390.2099755859375 C910.7499755859376,388.1099755859375 909.2499755859376,386.6099755859375 907.2499755859376,385.6099755859375 z" stroke-linecap="round" stroke-width="0" id="svg_69"/>
</g>
		<g stroke-width="0" id="svg_70">
<path style="stroke: none; stroke-width: 1; stroke-dasharray: none; stroke-linecap: butt; stroke-dashoffset: 0; stroke-linejoin: miter; stroke-miterlimit: 4; fill: rgb(255,255,255); fill-rule: nonzero; opacity: 1;" vector-effect="non-scaling-stroke" d="M945.8499804687499,387.5099755859376 C943.1499804687498,385.2099755859376 939.4499804687499,384.1099755859376 934.5499804687499,384.1099755859376 C932.0499804687499,384.1099755859376 929.5499804687499,384.40997558593756 927.14998046875,385.1099755859376 C924.74998046875,385.7099755859376 922.64998046875,386.7099755859376 920.84998046875,388.0099755859376 L924.04998046875,394.40997558593756 C925.2499804687501,393.5099755859376 926.6499804687501,392.80997558593754 928.2499804687501,392.2099755859375 C929.8499804687501,391.7099755859375 931.54998046875,391.40997558593756 933.2499804687501,391.40997558593756 C935.7499804687501,391.40997558593756 937.54998046875,392.0099755859376 938.7499804687501,393.1099755859376 C939.9499804687501,394.2099755859376 940.54998046875,395.7099755859376 940.54998046875,397.7099755859376 L940.54998046875,397.80997558593765 L933.2499804687501,397.80997558593765 C929.9499804687501,397.80997558593765 927.3499804687501,398.2099755859376 925.3499804687501,399.0099755859377 C923.3499804687501,399.80997558593765 921.8499804687501,400.9099755859377 920.9499804687501,402.30997558593765 C920.0499804687502,403.7099755859376 919.5499804687502,405.4099755859377 919.5499804687502,407.2099755859376 C919.5499804687502,409.0099755859376 920.0499804687502,410.6099755859376 920.9499804687501,412.1099755859376 C921.9499804687501,413.6099755859376 923.2499804687501,414.7099755859376 925.0499804687502,415.5099755859376 C926.8499804687501,416.30997558593754 928.9499804687501,416.80997558593754 931.3499804687501,416.80997558593754 C934.1499804687501,416.80997558593754 936.4499804687501,416.30997558593754 938.1499804687501,415.2099755859375 C939.3499804687501,414.50997558593747 940.2499804687501,413.50997558593747 940.94998046875,412.40997558593756 L940.94998046875,416.40997558593756 L949.54998046875,416.40997558593756 L949.54998046875,398.30997558593754 C949.8499804687499,393.30997558593754 948.5499804687499,389.80997558593754 945.8499804687499,387.5099755859376 zM938.0499804687499,409.5099755859376 C936.8499804687499,410.2099755859376 935.4499804687499,410.6099755859376 933.8499804687499,410.6099755859376 C932.2499804687499,410.6099755859376 931.0499804687499,410.30997558593765 930.1499804687498,409.6099755859376 C929.2499804687499,408.90997558593756 928.7499804687499,408.0099755859376 928.7499804687499,406.80997558593765 C928.7499804687499,405.7099755859376 929.1499804687498,404.9099755859377 929.9499804687499,404.1099755859376 C930.7499804687499,403.40997558593756 932.2499804687499,403.0099755859376 934.4499804687499,403.0099755859376 L940.7499804687499,403.0099755859376 L940.7499804687499,406.2099755859376 C940.14998046875,407.7099755859375 939.24998046875,408.80997558593754 938.0499804687499,409.5099755859376 z" stroke-linecap="round" stroke-width="0" id="svg_71"/>
</g>
		<g stroke-width="0" id="svg_72">
<path style="stroke: none; stroke-width: 1; stroke-dasharray: none; stroke-linecap: butt; stroke-dashoffset: 0; stroke-linejoin: miter; stroke-miterlimit: 4; fill: rgb(255,255,255); fill-rule: nonzero; opacity: 1;" vector-effect="non-scaling-stroke" d="M976.1500244140625,408.21001220703124 C975.1500244140625,409.0100122070312 973.8500244140625,409.4100122070313 972.3500244140625,409.4100122070313 C971.1500244140625,409.4100122070313 970.2500244140625,409.0100122070313 969.5500244140626,408.31001220703126 C968.8500244140625,407.6100122070312 968.5500244140626,406.5100122070313 968.5500244140626,405.21001220703124 L968.5500244140626,392.31001220703126 L976.3500244140625,392.31001220703126 L976.3500244140625,385.21001220703124 L968.5500244140626,385.21001220703124 L968.5500244140626,377.5100122070312 L959.2500244140626,377.5100122070312 L959.2500244140626,385.21001220703124 L954.3500244140627,385.21001220703124 L954.3500244140627,392.31001220703126 L959.2500244140626,392.31001220703126 L959.2500244140626,405.31001220703126 C959.2500244140626,409.1100122070312 960.2500244140626,411.9100122070313 962.3500244140627,413.81001220703126 C964.4500244140627,415.71001220703124 967.3500244140627,416.71001220703124 971.0500244140627,416.71001220703124 C972.4500244140627,416.71001220703124 973.8500244140627,416.5100122070312 975.1500244140627,416.21001220703124 C976.4500244140627,415.9100122070313 977.5500244140627,415.4100122070313 978.4500244140627,414.71001220703124 L976.1500244140625,408.21001220703124 z" stroke-linecap="round" stroke-width="0" id="svg_73"/>
</g>
</g>
</g></g></svg>