<svg width="381" height="381" viewBox="0 0 381 381" fill="none" xmlns="http://www.w3.org/2000/svg">
<path d="M41.8352 127.456C41.8184 130.297 41.0822 131.73 40.1689 131.837C39.5704 131.907 38.8791 131.413 38.2553 130.381C36.204 127.012 33.9588 123.8 31.5731 120.648C31.5731 120.642 31.5759 120.633 31.5787 120.628C32.5032 115.654 33.9841 110.582 36.5187 106.17C39.6884 112.555 41.8746 120.352 41.8352 127.456ZM29.9405 127.29C32.1801 129.297 32.7927 130.898 32.2925 131.772C31.9665 132.346 31.1488 132.615 29.9489 132.475C25.9335 132.003 21.9292 131.817 17.8772 131.789C17.8744 131.784 17.8688 131.778 17.8631 131.772C14.0387 127.22 10.5768 122.092 8.35409 116.553C15.9355 118.349 24.1407 122.1 29.9405 127.293M22.2945 137.676C25.2871 137.044 26.9226 137.564 27.2907 138.553C27.5323 139.202 27.2317 140.067 26.3859 140.995C23.5843 144.052 21.016 147.264 18.5516 150.608H18.5291C12.496 151.055 6.2213 150.804 0.334351 149.338C6.3337 144.024 14.463 139.331 22.2973 137.679M25.7171 150.484C27.0265 147.699 28.4231 146.651 29.3841 146.944C30.0164 147.135 30.48 147.899 30.6486 149.127C31.1882 153.002 31.9665 156.804 32.9163 160.609C32.9135 160.614 32.9079 160.62 32.9023 160.625C29.6202 165.284 26.0992 169.769 21.6819 173.417C21.1593 165.889 22.5249 157.276 25.7171 150.484ZM37.0498 155.053C35.8865 152.504 35.9736 150.776 36.7604 150.181C37.2774 149.79 38.1036 149.863 39.0646 150.431C41.9982 152.162 45.0218 153.78 48.1915 155.064C48.1915 155.07 48.1915 155.078 48.1943 155.084C49.3351 159.847 49.9983 164.846 49.7061 169.747C44.4289 166.29 39.6406 160.727 37.0498 155.053ZM47.0309 148.776C44.6171 148.242 43.4622 147.16 43.5381 146.176C43.5859 145.53 44.1479 144.909 45.137 144.471C48.1718 143.125 51.1673 141.644 53.9885 139.871C53.9941 139.874 53.9997 139.876 54.0025 139.879C57.7398 141.787 61.331 144.209 64.2197 147.275C58.9678 149.321 52.4683 149.978 47.0309 148.776ZM49.0092 136.934C47.0984 138.606 45.6259 138.887 44.9824 138.21C44.5609 137.766 44.4766 136.906 44.7942 135.793C45.8086 132.267 46.5954 128.704 47.2501 125.085C47.2557 125.085 47.2614 125.082 47.267 125.079C51.1195 123.275 54.986 121.623 59.2629 121.176C57.2425 126.948 53.581 132.938 49.0092 136.937" fill="#006E43"/>
<path d="M36.5188 106.173C33.987 110.582 32.5061 115.654 31.5816 120.628C31.5816 120.633 31.5788 120.642 31.576 120.647C30.9409 119.821 30.0979 118.826 29.3673 117.919C26.6023 114.474 23.545 111.254 20.4512 108.089C25.5289 106.052 31.1039 105.383 36.5188 106.173ZM0 133.157C4.73204 132.579 9.48656 132.05 14.1961 131.89C15.4129 131.848 16.7926 131.786 17.8828 131.786C17.8772 131.781 17.8744 131.772 17.8688 131.769C14.0444 127.217 10.5825 122.089 8.35975 116.553C4.13913 121.215 1.25888 127.004 0 133.16M9.32358 165.517C11.5491 161.46 13.8955 157.444 16.461 153.656C17.141 152.65 17.9081 151.496 18.5516 150.605C18.5432 150.605 18.5376 150.605 18.5291 150.605C12.4989 151.052 6.22415 150.804 0.3372 149.335C1.84336 155.404 4.92874 161.055 9.32358 165.517ZM37.7271 174.672C36.294 171.062 34.9199 167.428 33.8268 163.761C33.5233 162.744 33.1664 161.561 32.9163 160.603C32.9135 160.608 32.9079 160.614 32.9051 160.62C29.623 165.276 26.1021 169.761 21.6848 173.411C27.0182 174.973 32.197 175.706 37.7271 174.672ZM59.8671 158.897C56.7901 158.119 53.7244 157.234 50.7823 156.073C49.9449 155.741 48.9699 155.393 48.1943 155.061C48.1943 155.067 48.1943 155.075 48.1971 155.081C49.338 159.844 50.0011 164.84 49.7089 169.744C53.8537 166.945 57.3296 163.208 59.8671 158.9M63.9921 132.66C61.5221 134.692 58.9819 136.659 56.2984 138.378C55.5481 138.859 54.6967 139.441 53.9857 139.871C53.9913 139.871 53.9942 139.876 53.9998 139.879C57.7371 141.787 61.3283 144.206 64.2169 147.272C64.9026 142.206 64.8464 137.701 63.9921 132.66ZM48.7198 110.663C48.495 114.46 48.2196 118.264 47.7054 121.976C47.5649 122.982 47.4075 124.157 47.2502 125.084C47.2558 125.084 47.2614 125.079 47.267 125.079C51.1195 123.275 54.9861 121.622 59.2629 121.176C56.5765 116.947 52.9769 113.316 48.7226 110.666" fill="#3DAE2B"/>
<path d="M264.264 116.784L257.702 163.112H249.357V157.933C245.22 161.887 240.924 163.888 236.571 163.888C233.514 163.888 231.255 163.005 229.664 161.19C227.208 158.388 226.486 153.437 227.461 146.058C229.383 132.225 234.545 129.445 242.253 129.445C245.302 129.445 248.789 129.721 251.894 130.179L253.791 116.784H264.264ZM246.26 137.077C240.446 137.077 239.204 137.816 238.055 146.308C237.465 150.661 237.293 153.375 238.156 154.362C238.513 154.772 239.117 154.941 240.039 154.901C243.214 154.839 245.74 153.162 248.997 150.282L250.837 137.077H246.257H246.26ZM151.954 129.445C146.03 129.445 141.975 130.676 139.193 133.318C136.445 135.928 134.824 139.916 133.93 146.246C133.037 152.538 133.801 156.978 136.265 159.819C138.643 162.556 142.675 163.888 148.593 163.888C151.501 163.888 155.778 163.623 159.625 162.359L159.895 162.272L160.979 154.533L160.285 154.648C157.61 155.031 154.238 155.224 150.27 155.224C147.525 155.224 146.159 154.887 145.395 154.022C144.451 152.951 144.271 150.863 144.78 146.82C145.693 139.323 148.022 138.114 153.243 138.114C155.359 138.114 163.258 138.249 163.258 138.249L164.284 130.907C164.284 130.907 159.858 129.448 151.951 129.448M222.985 133.087C224.575 134.922 225.109 137.493 224.617 140.952C223.6 147.927 218.708 149.658 211.146 150.195L202.157 150.872C202.399 154.651 204.368 155.356 208.078 155.356C211.275 155.356 218.98 154.98 220.239 154.66L220.745 154.53L220.804 155.05C221.116 157.787 222.027 160.811 222.035 160.842L222.153 161.235L221.774 161.395C217.685 163.112 211.239 163.893 206.979 163.893C200.94 163.893 196.787 162.525 194.283 159.706C191.732 156.835 190.852 152.353 191.6 146.005C193.1 133.627 197.877 129.451 210.531 129.451C216.786 129.451 220.858 130.643 222.982 133.09M209.648 143.667C212.7 143.422 214.116 142.827 214.473 139.932C214.56 138.924 214.456 138.308 214.133 137.957C213.658 137.437 212.532 137.333 210.874 137.333C210.567 137.333 210.239 137.336 209.893 137.342C204.989 137.342 203.778 139.014 202.817 144.319L209.651 143.667H209.648ZM192.758 130.359H190.737C186.902 130.359 183.147 132.258 178.309 136.678V130.359H170.025L165.439 163.121H175.926L178.466 144.277C179.787 142.593 183.459 140.612 186.191 140.612H188.427L188.506 140.253C188.514 140.211 189.461 135.998 192.353 131.044L192.755 130.359H192.758ZM82.6955 128.875C81.8188 135.636 84.182 139.632 90.6 142.242L99.075 145.614C101.767 146.598 102.36 147.101 102.014 149.762C101.492 153.196 100.154 154.114 94.2305 154.114H79.8321L78.5507 163.112H94.6492C107.19 163.112 111.402 160.156 112.675 150.459C113.459 144.338 112.4 139.946 104.698 136.959L96.6865 133.911C93.5814 132.75 93.011 132.286 93.4212 129.569C93.8961 126.54 95.0117 125.885 97.3356 125.722H114.516L115.797 116.725H100.463C90.0268 116.725 84.1033 118.661 82.6983 128.872M115.876 163.118H126.293L130.879 130.356H120.462L115.876 163.118ZM131.528 125.722L132.787 116.725H122.37L121.111 125.722H131.528ZM264.087 163.118H274.503L279.089 130.356H268.673L264.087 163.118ZM279.738 125.722L280.997 116.725H270.581L269.322 125.722H279.738Z" fill="#3DAE2B"/>
</svg>
